# xmcd
# Track frame offsets:
# 153
# 10281
# 21678
# 32879
# 44901
# 58570
# 69645
# 78712
# 89829
# 100939
# 112435
# 123731
# 138503
# 146815
# 160447
# 168030
# 181422
# 197966
# 207203
# 215987
# 228345
# 235879
# 243141
# 256880
# 264717
# 278864
#
# Disc length: 3869 seconds
# Revision: 0
# Processed by: cddbd v1.5.2PL0 Copyright (c) Steve Scherf et al.
# Submitted via: VisiTrax 2.10.0.248 - For more info visit www.synapsa.com
#
DISCID=a40f1b1a
DTITLE=Dean, Eddie - On The Banks Of The Sunny San Juan - Standard Transcript
DTITLE=ions
DYEAR=2000
DGENRE=Country - Standard Transcriptions
TTITLE0=Wonder Why You Said Goodbye
TTITLE1=Walkin' The Floor Over You
TTITLE2=This Little Rosary
TTITLE3=Rose Of Santa Fe
TTITLE4=How Can You Say You Love Me?
TTITLE5=Cryin' Myself To Sleep
TTITLE6=Pay Me No Mind
TTITLE7=I Hung My Head And Cried
TTITLE8=Someday You'll Know You Did Wrong
TTITLE9=Promise To Be True While I'm Away
TTITLE10=On The Banks Of The Sunny San Juan
TTITLE11=Palamino Pal Of Mine
TTITLE12=Ridin' Down That Utah Trail
TTITLE13=Moonlight On The Painted Desert
TTITLE14=We're Brandin' Today
TTITLE15=I've Sold My Saddle For An Old Guitar
TTITLE16=Rainbow Over The Range
TTITLE17=Poor Old Bill
TTITLE18=Old Chuck Wagon, The
TTITLE19=I've Got A Cowboy's Song For Sale
TTITLE20=My Old Herding Song
TTITLE21=Road To Santa Fe, The
TTITLE22=Prairie Moonbeams
TTITLE23=Dry And Dusty
TTITLE24=Restin' Beside The Trail
TTITLE25=When I Move To That New Range
EXTD=
EXTT0=
EXTT1=
EXTT2=
EXTT3=
EXTT4=
EXTT5=
EXTT6=
EXTT7=
EXTT8=
EXTT9=
EXTT10=
EXTT11=
EXTT12=
EXTT13=
EXTT14=
EXTT15=
EXTT16=
EXTT17=
EXTT18=
EXTT19=
EXTT20=
EXTT21=
EXTT22=
EXTT23=
EXTT24=
EXTT25=
PLAYORDER=
